<?xml version="1.0" encoding="UTF-8" standalone="no"?>
<svg width="279.4mm" height="215.9mm"
 viewBox="0 0 3300 2550"
 xmlns="http://www.w3.org/2000/svg" xmlns:xlink="http://www.w3.org/1999/xlink"  version="1.2" baseProfile="tiny">
<defs>
</defs>
<g fill="none" stroke="black" stroke-width="1" fill-rule="evenodd" stroke-linecap="square" stroke-linejoin="bevel" >

<g fill="#ffffff" fill-opacity="1" stroke="none" transform="matrix(1,0,0,1,0,0)"
font-family="Arial" font-size="12" font-weight="400" font-style="normal" 
>
<rect x="0" y="0" width="3300" height="2550"/>
</g>

<g fill="none" stroke="#000000" stroke-opacity="1" stroke-width="1" stroke-linecap="square" stroke-linejoin="bevel" transform="matrix(1,0,0,1,0,0)"
font-family="Arial" font-size="12" font-weight="400" font-style="normal" 
>
</g>

<g fill="#000000" fill-opacity="1" stroke="#000000" stroke-opacity="1" stroke-width="1" stroke-linecap="butt" stroke-linejoin="miter" stroke-miterlimit="2" transform="matrix(1,0,0,1,0,0)"
font-family="Arial" font-size="12" font-weight="400" font-style="normal" 
>
</g>

<g fill="#000000" fill-opacity="1" stroke="#000000" stroke-opacity="1" stroke-width="5" stroke-linecap="round" stroke-linejoin="bevel" transform="matrix(1,0,0,1,0,0)"
font-family="Arial" font-size="12" font-weight="400" font-style="normal" 
>
<polyline fill="none" vector-effect="none" points="2367.5,943.612 2368.31,945.748 2369.16,947.863 2370.07,949.957 2371.04,952.028 2372.05,954.075 2373.11,956.097 2374.22,958.093 2375.37,960.061 2376.58,962 2377.83,963.909 2379.13,965.787 2380.47,967.633 2381.86,969.446 2383.29,971.224 2384.77,972.967 2386.28,974.673 2387.84,976.343 2389.44,977.973 2391.08,979.565 2392.75,981.115 2394.46,982.625 2396.21,984.093 2398,985.517 2399.82,986.898 2401.67,988.234 2403.55,989.524 2405.46,990.769 2407.41,991.966 2409.38,993.115 2411.38,994.217 2413.41,995.269 2415.46,996.271 2417.53,997.223 2419.63,998.125 2421.75,998.975 2423.89,999.773 2426.05,1000.52 2428.22,1001.21 2430.41,1001.85 2432.62,1002.44 2434.84,1002.97 2437.07,1003.45 2439.32,1003.87 2441.57,1004.24 2443.83,1004.56 2446.1,1004.82 2448.37,1005.02 2450.65,1005.17 2452.93,1005.26 2455.21,1005.3 2457.5,1005.28 2459.78,1005.2 2462.06,1005.07 2464.33,1004.89 2466.6,1004.65 2468.87,1004.35 2471.12,1004 2473.37,1003.6 2475.61,1003.14 2477.83,1002.62 2480.04,1002.05 2482.24,1001.43 2484.42,1000.76 2486.58,1000.03 2488.73,999.247 2490.86,998.414 2492.96,997.53 2495.04,996.594 2497.1,995.608 2499.14,994.573 2501.15,993.488 2503.13,992.354 2505.08,991.173 2507.01,989.944 2508.9,988.669 2510.76,987.348 2512.59,985.982 2514.39,984.572 2516.15,983.119 2517.87,981.623 2519.56,980.086 2521.21,978.508 2522.82,976.89 2524.39,975.234 2525.92,973.54 2527.41,971.809 2528.86,970.042 2530.26,968.241 2531.62,966.406 2532.93,964.538 2534.2,962.639 2535.42,960.71 2536.59,958.752 2537.72,956.765 2538.8,954.752 2539.82,952.713 2540.8,950.65 2541.73,948.564 2542.6,946.455 2543.43,944.326 2544.2,942.178 2544.92,940.011 2545.59,937.827 2546.2,935.628 2546.76,933.415 2547.26,931.188 2547.72,928.95 2548.11,926.702 2548.45,924.444 2548.74,922.179 2548.97,919.908 2549.15,917.632 2549.27,915.352 2549.33,913.07 2549.34,910.787 2549.3,908.504 2549.19,906.223 2549.04,903.946 2548.82,901.672 2548.56,899.405 2548.23,897.145 2547.85,894.893 2547.42,892.652 2546.93,890.421 2546.39,888.203 2545.8,885.999 2545.15,883.81 2544.45,881.638 2543.69,879.483 " />
<polyline fill="none" vector-effect="none" points="2367.5,943.612 2361,926.427 2354.09,909.406 2346.76,892.559 2339.02,875.897 2330.88,859.43 2322.33,843.167 2313.39,827.118 2304.06,811.293 2294.35,795.701 2284.25,780.352 2273.78,765.254 2262.95,750.418 2251.75,735.852 2240.2,721.564 2228.31,707.563 2216.08,693.858 2203.51,680.456 2190.62,667.367 2177.41,654.597 2163.89,642.154 2150.08,630.046 2135.97,618.281 2121.57,606.864 2106.91,595.803 2091.97,585.105 2076.78,574.776 2061.34,564.822 2045.66,555.25 2029.75,546.064 2013.62,537.271 1997.27,528.875 1980.73,520.882 1964,513.297 1947.09,506.124 1930,499.367 1912.76,493.031 1895.37,487.119 1877.83,481.635 1860.17,476.582 1842.39,471.963 1824.5,467.781 1806.51,464.038 1788.44,460.738 1770.29,457.88 1752.08,455.468 1733.81,453.503 1715.5,451.986 1697.16,450.918 1678.8,450.299 1660.43,450.131 1642.06,450.412 1623.71,451.143 1605.37,452.323 1587.07,453.953 1568.82,456.03 1550.62,458.553 1532.49,461.521 1514.44,464.933 1496.48,468.785 1478.62,473.077 1460.86,477.805 1443.23,482.966 1425.73,488.557 1408.37,494.575 1391.17,501.017 1374.13,507.878 1357.26,515.155 1340.57,522.842 1324.08,530.936 1307.79,539.432 1291.71,548.324 1275.86,557.607 1260.24,567.275 1244.86,577.323 1229.73,587.745 1214.86,598.535 1200.26,609.685 1185.94,621.19 1171.9,633.042 1158.16,645.234 1144.72,657.759 1131.59,670.61 1118.78,683.778 1106.29,697.256 1094.14,711.036 1082.33,725.109 1070.87,739.468 1059.77,754.102 1049.02,769.005 1038.65,784.166 1028.65,799.576 1019.03,815.227 1009.79,831.109 1000.95,847.213 992.505,863.528 984.462,880.045 976.825,896.754 969.6,913.645 962.791,930.708 956.402,947.933 950.437,965.309 944.899,982.826 939.792,1000.47 935.119,1018.24 930.882,1036.12 927.084,1054.09 923.728,1072.15 920.815,1090.29 918.348,1108.5 916.327,1126.76 914.754,1145.06 913.629,1163.4 912.954,1181.76 912.729,1200.13 912.954,1218.5 913.629,1236.86 914.754,1255.19 916.327,1273.5 918.348,1291.76 920.815,1309.96 923.728,1328.1 927.084,1346.16 930.882,1364.14 935.119,1382.01 939.792,1399.78 944.899,1417.43 950.437,1434.95 956.402,1452.32 962.791,1469.55 969.6,1486.61 976.825,1503.5 984.462,1520.21 992.505,1536.73 1000.95,1553.04 1009.79,1569.14 1019.03,1585.03 1028.65,1600.68 1038.65,1616.09 1049.02,1631.25 1059.77,1646.15 1070.87,1660.79 1082.33,1675.14 1094.14,1689.22 1106.29,1703 1118.78,1716.48 1131.59,1729.64 1144.72,1742.5 1158.16,1755.02 1171.9,1767.21 1185.94,1779.06 1200.26,1790.57 1214.86,1801.72 1229.73,1812.51 1244.86,1822.93 1260.24,1832.98 1275.86,1842.65 1291.71,1851.93 1307.79,1860.82 1324.08,1869.32 1340.57,1877.41 1357.26,1885.1 1374.13,1892.38 1391.17,1899.24 1408.37,1905.68 1425.73,1911.7 1443.23,1917.29 1460.86,1922.45 1478.62,1927.18 1496.48,1931.47 1514.44,1935.32 1532.49,1938.73 1550.62,1941.7 1568.82,1944.22 1587.07,1946.3 1605.37,1947.93 1623.71,1949.11 1642.06,1949.84 1660.43,1950.12 1678.8,1949.95 1697.16,1949.34 1715.5,1948.27 1733.81,1946.75 1752.08,1944.79 1770.29,1942.37 1788.44,1939.52 1806.51,1936.22 1824.5,1932.47 1842.39,1928.29 1860.17,1923.67 1877.83,1918.62 1895.37,1913.14 1912.76,1907.22 1930,1900.89 1947.09,1894.13 1964,1886.96 1980.73,1879.37 1997.27,1871.38 2013.62,1862.98 2029.75,1854.19 2045.66,1845 2061.34,1835.43 2076.78,1825.48 2091.97,1815.15 2106.91,1804.45 2121.57,1793.39 2135.97,1781.97 2150.08,1770.21 2163.89,1758.1 2177.41,1745.66 2190.62,1732.89 2203.51,1719.8 2216.08,1706.4 2228.31,1692.69 2240.2,1678.69 2251.75,1664.4 2262.95,1649.84 2273.78,1635 2284.25,1619.9 2294.35,1604.55 2304.06,1588.96 2313.39,1573.14 2322.33,1557.09 2330.88,1540.82 2339.02,1524.36 2346.76,1507.7 2354.09,1490.85 2361,1473.83 2367.5,1456.64 " />
<polyline fill="none" vector-effect="none" points="2543.69,1520.77 2544.45,1518.6 2545.16,1516.41 2545.81,1514.2 2546.41,1511.98 2546.95,1509.75 2547.44,1507.5 2547.88,1505.24 2548.25,1502.97 2548.58,1500.69 2548.84,1498.4 2549.05,1496.11 2549.21,1493.82 2549.3,1491.52 2549.34,1489.22 2549.33,1486.92 2549.26,1484.62 2549.13,1482.32 2548.94,1480.03 2548.7,1477.74 2548.4,1475.46 2548.05,1473.18 2547.64,1470.92 2547.18,1468.67 2546.66,1466.42 2546.08,1464.2 2545.46,1461.98 2544.77,1459.78 2544.04,1457.61 2543.25,1455.44 2542.4,1453.3 2541.51,1451.18 2540.56,1449.09 2539.56,1447.01 2538.51,1444.96 2537.42,1442.94 2536.27,1440.95 2535.07,1438.98 2533.83,1437.05 2532.54,1435.14 2531.2,1433.27 2529.82,1431.43 2528.39,1429.63 2526.92,1427.86 2525.4,1426.13 2523.84,1424.43 2522.25,1422.78 2520.61,1421.16 2518.93,1419.59 2517.22,1418.05 2515.46,1416.56 2513.68,1415.11 2511.85,1413.71 2509.99,1412.35 2508.1,1411.04 2506.18,1409.78 2504.23,1408.56 2502.25,1407.39 2500.24,1406.27 2498.2,1405.2 2496.14,1404.18 2494.05,1403.21 2491.94,1402.29 2489.81,1401.42 2487.66,1400.61 2485.49,1399.85 2483.3,1399.14 2481.09,1398.49 2478.87,1397.89 2476.63,1397.35 2474.39,1396.86 2472.13,1396.43 2469.86,1396.05 2467.58,1395.73 2465.29,1395.46 2463,1395.25 2460.71,1395.1 2458.41,1395 2456.11,1394.96 2453.81,1394.97 2451.51,1395.05 2449.21,1395.17 2446.91,1395.36 2444.63,1395.6 2442.35,1395.9 2440.07,1396.25 2437.81,1396.66 2435.55,1397.12 2433.31,1397.64 2431.08,1398.22 2428.87,1398.85 2426.67,1399.53 2424.49,1400.27 2422.33,1401.06 2420.19,1401.9 2418.07,1402.79 2415.97,1403.74 2413.9,1404.74 2411.85,1405.79 2409.83,1406.89 2407.84,1408.03 2405.87,1409.23 2403.94,1410.47 2402.03,1411.76 2400.16,1413.1 2398.32,1414.49 2396.52,1415.91 2394.75,1417.39 2393.02,1418.9 2391.32,1420.46 2389.67,1422.05 2388.05,1423.69 2386.48,1425.37 2384.94,1427.09 2383.45,1428.84 2382,1430.63 2380.6,1432.45 2379.24,1434.31 2377.93,1436.2 2376.66,1438.12 2375.45,1440.07 2374.28,1442.05 2373.16,1444.06 2372.09,1446.1 2371.07,1448.16 2370.1,1450.25 2369.18,1452.36 2368.31,1454.49 2367.5,1456.64 " />
<polyline fill="none" vector-effect="none" points="2543.69,879.483 2535.57,858.002 2526.93,836.725 2517.77,815.667 2508.1,794.84 2497.92,774.255 2487.24,753.926 2476.06,733.865 2464.4,714.084 2452.25,694.594 2439.63,675.408 2426.55,656.536 2413,637.991 2399.01,619.783 2384.57,601.923 2369.7,584.422 2354.41,567.291 2338.7,550.539 2322.59,534.177 2306.08,518.214 2289.19,502.661 2271.91,487.526 2254.28,472.819 2236.29,458.548 2217.95,444.722 2199.28,431.35 2180.29,418.438 2160.99,405.996 2141.39,394.03 2121.5,382.548 2101.34,371.557 2080.91,361.062 2060.23,351.071 2039.32,341.59 2018.18,332.623 1996.82,324.177 1975.27,316.257 1953.52,308.867 1931.61,302.012 1909.53,295.696 1887.3,289.922 1864.94,284.695 1842.46,280.016 1819.87,275.89 1797.18,272.319 1774.42,269.304 1751.58,266.847 1728.7,264.951 1705.77,263.616 1682.82,262.842 1659.86,262.631 1636.9,262.983 1613.95,263.897 1591.03,265.373 1568.16,267.409 1545.34,270.005 1522.6,273.159 1499.93,276.87 1477.37,281.134 1454.92,285.95 1432.59,291.314 1410.4,297.224 1388.36,303.675 1366.48,310.665 1344.78,318.188 1323.28,326.24 1301.98,334.816 1280.89,343.912 1260.03,353.521 1239.42,363.639 1219.06,374.258 1198.96,385.373 1179.14,396.977 1159.62,409.062 1140.39,421.623 1121.48,434.65 1102.89,448.137 1084.64,462.075 1066.74,476.455 1049.19,491.27 1032.01,506.51 1015.21,522.167 998.803,538.23 982.79,554.691 967.185,571.538 951.997,588.763 937.236,606.355 922.91,624.303 909.028,642.596 895.599,661.224 882.629,680.175 870.128,699.439 858.102,719.002 846.559,738.855 835.506,758.984 824.949,779.378 814.895,800.024 805.349,820.911 796.318,842.025 787.807,863.353 779.82,884.884 772.364,906.604 765.442,928.5 759.058,950.559 753.216,972.768 747.92,995.114 743.173,1017.58 738.978,1040.16 735.337,1062.83 732.252,1085.59 729.726,1108.41 727.76,1131.29 726.354,1154.22 725.511,1177.16 725.229,1200.13 725.511,1223.09 726.354,1246.04 727.76,1268.96 729.726,1291.84 732.252,1314.66 735.337,1337.42 738.978,1360.09 743.173,1382.67 747.92,1405.14 753.216,1427.49 759.058,1449.69 765.442,1471.75 772.364,1493.65 779.82,1515.37 787.807,1536.9 796.318,1558.23 805.349,1579.34 814.895,1600.23 824.949,1620.88 835.506,1641.27 846.559,1661.4 858.102,1681.25 870.128,1700.82 882.629,1720.08 895.599,1739.03 909.028,1757.66 922.91,1775.95 937.236,1793.9 951.997,1811.49 967.185,1828.72 982.79,1845.56 998.803,1862.02 1015.21,1878.09 1032.01,1893.74 1049.19,1908.98 1066.74,1923.8 1084.64,1938.18 1102.89,1952.12 1121.48,1965.6 1140.39,1978.63 1159.62,1991.19 1179.14,2003.28 1198.96,2014.88 1219.06,2026 1239.42,2036.62 1260.03,2046.73 1280.89,2056.34 1301.98,2065.44 1323.28,2074.01 1344.78,2082.07 1366.48,2089.59 1388.36,2096.58 1410.4,2103.03 1432.59,2108.94 1454.92,2114.3 1477.37,2119.12 1499.93,2123.38 1522.6,2127.09 1545.34,2130.25 1568.16,2132.85 1591.03,2134.88 1613.95,2136.36 1636.9,2137.27 1659.86,2137.62 1682.82,2137.41 1705.77,2136.64 1728.7,2135.3 1751.58,2133.41 1774.42,2130.95 1797.18,2127.94 1819.87,2124.36 1842.46,2120.24 1864.94,2115.56 1887.3,2110.33 1909.53,2104.56 1931.61,2098.24 1953.52,2091.39 1975.27,2084 1996.82,2076.08 2018.18,2067.63 2039.32,2058.66 2060.23,2049.18 2080.91,2039.19 2101.34,2028.7 2121.5,2017.71 2141.39,2006.22 2160.99,1994.26 2180.29,1981.82 2199.28,1968.9 2217.95,1955.53 2236.29,1941.71 2254.28,1927.44 2271.91,1912.73 2289.19,1897.59 2306.08,1882.04 2322.59,1866.08 2338.7,1849.72 2354.41,1832.96 2369.7,1815.83 2384.57,1798.33 2399.01,1780.47 2413,1762.26 2426.55,1743.72 2439.63,1724.85 2452.25,1705.66 2464.4,1686.17 2476.06,1666.39 2487.24,1646.33 2497.92,1626 2508.1,1605.41 2517.77,1584.59 2526.93,1563.53 2535.57,1542.25 2543.69,1520.77 " />
<polyline fill="none" vector-effect="none" points="1704.2,1324.65 1705.94,1324.1 1707.7,1323.58 1709.46,1323.11 1711.24,1322.68 1713.02,1322.3 1714.82,1321.96 1716.62,1321.66 1718.43,1321.41 1720.24,1321.2 1722.06,1321.04 1723.89,1320.92 1725.71,1320.84 1727.54,1320.81 1729.36,1320.82 1731.19,1320.88 1733.01,1320.98 1734.83,1321.13 1736.65,1321.32 1738.46,1321.56 1740.27,1321.83 1742.06,1322.16 1743.85,1322.52 1745.63,1322.93 1747.4,1323.39 1749.16,1323.88 1750.91,1324.42 1752.64,1325 1754.36,1325.63 1756.06,1326.29 1757.74,1327 1759.41,1327.75 1761.06,1328.53 1762.68,1329.36 1764.29,1330.23 1765.88,1331.13 1767.44,1332.08 1768.98,1333.06 1770.5,1334.08 1771.99,1335.13 " />
<polyline fill="none" vector-effect="none" points="1702.37,1325.25 1704.2,1324.65 " />
<polyline fill="none" vector-effect="none" points="1653.69,1373.57 1654.28,1371.84 1654.9,1370.12 1655.57,1368.42 1656.28,1366.74 1657.03,1365.08 1657.83,1363.43 1658.66,1361.8 1659.53,1360.2 1660.44,1358.61 1661.38,1357.05 1662.37,1355.52 1663.39,1354 1664.45,1352.51 1665.55,1351.05 1666.68,1349.62 1667.84,1348.21 1669.04,1346.83 1670.27,1345.48 1671.54,1344.17 1672.83,1342.88 1674.16,1341.62 1675.52,1340.4 1676.91,1339.21 1678.32,1338.06 1679.76,1336.94 1681.23,1335.85 1682.73,1334.81 1684.25,1333.79 1685.8,1332.82 1687.36,1331.88 1688.95,1330.99 1690.57,1330.13 1692.2,1329.31 1693.85,1328.53 1695.52,1327.79 1697.21,1327.09 1698.91,1326.44 1700.63,1325.82 1702.37,1325.25 " />
<polyline fill="none" vector-effect="none" points="1565.5,1644.98 1653.69,1373.57 " />
<polyline fill="none" vector-effect="none" points="1632.69,1743.05 1630.86,1742.92 1629.04,1742.76 1627.22,1742.54 1625.41,1742.29 1623.61,1741.99 1621.81,1741.64 1620.02,1741.25 1618.24,1740.82 1616.48,1740.35 1614.72,1739.83 1612.98,1739.27 1611.25,1738.66 1609.54,1738.02 1607.85,1737.33 1606.17,1736.61 1604.51,1735.84 1602.86,1735.03 1601.24,1734.18 1599.64,1733.29 1598.07,1732.37 1596.51,1731.4 1594.98,1730.4 1593.48,1729.36 1592,1728.28 1590.54,1727.17 1589.12,1726.03 1587.72,1724.84 1586.35,1723.63 1585.01,1722.38 1583.71,1721.1 1582.43,1719.79 1581.19,1718.45 1579.98,1717.07 1578.8,1715.67 1577.66,1714.24 1576.55,1712.79 1575.48,1711.3 1574.45,1709.79 1573.45,1708.26 1572.49,1706.7 1571.57,1705.12 1570.69,1703.52 1569.85,1701.89 1569.04,1700.25 1568.28,1698.59 1567.56,1696.91 1566.88,1695.21 1566.24,1693.49 1565.64,1691.76 1565.09,1690.02 1564.58,1688.26 1564.11,1686.49 1563.68,1684.71 1563.3,1682.93 1562.96,1681.13 1562.67,1679.32 1562.42,1677.51 1562.21,1675.69 1562.05,1673.87 1561.93,1672.04 1561.86,1670.21 1561.83,1668.39 1561.85,1666.56 1561.91,1664.73 1562.02,1662.9 1562.17,1661.08 1562.36,1659.26 1562.6,1657.44 1562.88,1655.64 1563.21,1653.84 1563.58,1652.04 1564,1650.26 1564.46,1648.49 1564.96,1646.73 1565.5,1644.98 " />
<polyline fill="none" vector-effect="none" points="1632.69,1743.05 1645.64,1743.61 1658.59,1743.86 1671.55,1743.81 1684.51,1743.44 1697.45,1742.77 1710.37,1741.79 1723.27,1740.5 1736.13,1738.9 1748.95,1737 1761.72,1734.79 1774.43,1732.28 1787.08,1729.47 1799.66,1726.35 1812.17,1722.94 1824.58,1719.23 1836.91,1715.22 1849.13,1710.93 1861.26,1706.34 1873.26,1701.46 1885.15,1696.3 1896.91,1690.86 1908.54,1685.14 1920.03,1679.15 1931.37,1672.88 1942.57,1666.34 1953.6,1659.54 1964.46,1652.48 1975.16,1645.16 1985.68,1637.59 1996.01,1629.76 2006.15,1621.7 " />
<polyline fill="none" vector-effect="none" points="2002.87,1502.88 2004.34,1503.97 2005.78,1505.1 2007.19,1506.26 2008.57,1507.46 2009.92,1508.69 2011.25,1509.95 2012.54,1511.25 2013.8,1512.58 2015.03,1513.93 2016.22,1515.32 2017.38,1516.74 2018.5,1518.18 2019.59,1519.65 2020.65,1521.15 2021.66,1522.67 2022.64,1524.21 2023.58,1525.78 2024.48,1527.37 2025.35,1528.99 2026.17,1530.62 2026.95,1532.28 2027.69,1533.95 2028.4,1535.64 2029.06,1537.34 2029.67,1539.07 2030.25,1540.8 2030.78,1542.55 2031.28,1544.31 2031.72,1546.09 2032.13,1547.87 2032.49,1549.67 2032.81,1551.47 2033.08,1553.28 2033.31,1555.09 2033.49,1556.91 2033.63,1558.74 2033.73,1560.57 2033.78,1562.39 2033.78,1564.22 2033.74,1566.05 2033.66,1567.88 2033.53,1569.71 2033.36,1571.53 2033.14,1573.34 2032.88,1575.16 2032.58,1576.96 2032.23,1578.76 2031.84,1580.54 2031.4,1582.32 2030.92,1584.08 2030.4,1585.84 2029.83,1587.58 2029.23,1589.3 2028.58,1591.01 2027.89,1592.71 2027.15,1594.39 2026.38,1596.04 2025.57,1597.68 2024.72,1599.3 2023.82,1600.9 2022.89,1602.48 2021.93,1604.03 2020.92,1605.56 2019.88,1607.06 2018.8,1608.54 2017.68,1609.99 2016.53,1611.41 2015.35,1612.8 2014.13,1614.17 2012.88,1615.5 2011.59,1616.81 2010.28,1618.08 2008.93,1619.32 2007.56,1620.53 2006.15,1621.7 " />
<polyline fill="none" vector-effect="none" points="2002.87,1502.88 1771.99,1335.13 " />
<polyline fill="none" vector-effect="none" points="2191.31,1007.74 2186.44,994.852 2181.25,982.086 2175.75,969.451 2169.95,956.955 2163.84,944.604 2157.43,932.407 2150.73,920.37 2143.73,908.501 2136.44,896.807 2128.87,885.296 2121.02,873.973 2112.89,862.845 2104.5,851.921 2095.84,841.205 2086.91,830.704 2077.74,820.425 2068.31,810.374 2058.65,800.557 2048.74,790.979 2038.6,781.647 2028.24,772.567 2017.66,763.742 2006.86,755.18 1995.86,746.884 1984.66,738.861 1973.27,731.114 1961.68,723.648 1949.92,716.469 1937.99,709.58 1925.89,702.985 1913.64,696.688 1901.23,690.694 1888.68,685.005 1876,679.625 1863.19,674.557 1850.25,669.805 1837.21,665.371 1824.06,661.258 1810.81,657.468 1797.47,654.004 1784.06,650.868 1770.57,648.061 1757.01,645.585 1743.4,643.442 1729.74,641.633 1716.04,640.159 1702.31,639.021 1688.56,638.22 1674.79,637.756 1661.01,637.63 1647.23,637.841 1633.46,638.389 1619.71,639.274 1605.99,640.496 1592.3,642.054 1578.65,643.946 1565.05,646.173 1551.51,648.731 1538.04,651.621 1524.64,654.839 1511.33,658.385 1498.11,662.256 1484.98,666.45 1471.96,670.963 1459.06,675.795 1446.28,680.941 1433.63,686.398 1421.11,692.164 1408.74,698.234 1396.53,704.606 1384.47,711.275 1372.58,718.237 1360.86,725.488 1349.33,733.024 1337.98,740.841 1326.83,748.933 1315.88,757.296 1305.13,765.924 1294.61,774.813 1284.3,783.957 1274.22,793.351 1264.37,802.989 1254.77,812.865 1245.4,822.974 1236.29,833.309 1227.43,843.864 1218.84,854.632 1210.51,865.609 1202.45,876.785 1194.67,888.156 1187.17,899.714 1179.95,911.452 1173.03,923.364 1166.4,935.441 1160.06,947.678 1154.03,960.065 1148.3,972.597 1142.88,985.266 1137.78,998.063 1132.98,1010.98 1128.51,1024.01 1124.36,1037.15 1120.53,1050.39 1117.02,1063.71 1113.84,1077.12 1111,1090.6 1108.48,1104.15 1106.29,1117.75 1104.44,1131.4 1102.93,1145.1 1101.75,1158.83 1100.9,1172.58 1100.4,1186.35 1100.23,1200.13 1100.4,1213.9 1100.9,1227.67 1101.75,1241.43 1102.93,1255.15 1104.44,1268.85 1106.29,1282.5 1108.48,1296.11 1111,1309.65 1113.84,1323.14 1117.02,1336.54 1120.53,1349.87 1124.36,1363.1 1128.51,1376.24 1132.98,1389.27 1137.78,1402.19 1142.88,1414.99 1148.3,1427.66 1154.03,1440.19 1160.06,1452.58 1166.4,1464.81 1173.03,1476.89 1179.95,1488.8 1187.17,1500.54 1194.67,1512.1 1202.45,1523.47 1210.51,1534.65 1218.84,1545.62 1227.43,1556.39 1236.29,1566.95 1245.4,1577.28 1254.77,1587.39 1264.37,1597.27 1274.22,1606.9 1284.3,1616.3 1294.61,1625.44 1305.13,1634.33 1315.88,1642.96 1326.83,1651.32 1337.98,1659.41 1349.33,1667.23 1360.86,1674.77 1372.58,1682.02 1384.47,1688.98 1396.53,1695.65 1408.74,1702.02 1421.11,1708.09 1433.63,1713.86 1446.28,1719.31 1459.06,1724.46 1471.96,1729.29 1484.98,1733.8 1498.11,1738 1511.33,1741.87 1524.64,1745.41 1538.04,1748.63 1551.51,1751.52 1565.05,1754.08 1578.65,1756.31 1592.3,1758.2 1605.99,1759.76 1619.71,1760.98 1633.46,1761.87 1647.23,1762.41 1661.01,1762.62 1674.79,1762.5 1688.56,1762.03 1702.31,1761.23 1716.04,1760.09 1729.74,1758.62 1743.4,1756.81 1757.01,1754.67 1770.57,1752.19 1784.06,1749.39 1797.47,1746.25 1810.81,1742.79 1824.06,1739 1837.21,1734.88 1850.25,1730.45 1863.19,1725.7 1876,1720.63 1888.68,1715.25 1901.23,1709.56 1913.64,1703.57 1925.89,1697.27 1937.99,1690.67 1949.92,1683.79 1961.68,1676.61 1973.27,1669.14 1984.66,1661.39 1995.86,1653.37 2006.86,1645.07 2017.66,1636.51 2028.24,1627.69 2038.6,1618.61 2048.74,1609.27 2058.65,1599.7 2068.31,1589.88 2077.74,1579.83 2086.91,1569.55 2095.84,1559.05 2104.5,1548.33 2112.89,1537.41 2121.02,1526.28 2128.87,1514.96 2136.44,1503.45 2143.73,1491.75 2150.73,1479.88 2157.43,1467.85 2163.84,1455.65 2169.95,1443.3 2175.75,1430.8 2181.25,1418.17 2186.44,1405.4 2191.31,1392.51 " />
<polyline fill="none" vector-effect="none" points="2191.31,1007.74 2192.03,1009.66 2192.81,1011.57 2193.62,1013.45 2194.49,1015.32 2195.4,1017.16 2196.35,1018.98 2197.35,1020.77 2198.39,1022.54 2199.48,1024.29 2200.6,1026.01 2201.77,1027.7 2202.98,1029.36 2204.23,1030.99 2205.52,1032.59 2206.85,1034.16 2208.21,1035.7 2209.61,1037.2 2211.05,1038.67 2212.53,1040.1 2214.03,1041.49 2215.57,1042.85 2217.15,1044.17 2218.75,1045.46 2220.39,1046.7 2222.06,1047.9 2223.75,1049.06 2225.48,1050.18 2227.22,1051.26 2229,1052.29 2230.8,1053.28 2232.62,1054.23 2234.47,1055.13 2236.34,1055.99 2238.23,1056.8 2240.13,1057.57 2242.06,1058.29 2244,1058.96 2245.96,1059.58 2247.93,1060.16 2249.92,1060.68 2251.91,1061.16 2253.92,1061.59 2255.94,1061.98 2257.97,1062.31 2260,1062.59 2262.05,1062.82 2264.09,1063.01 2266.14,1063.14 2268.2,1063.22 2270.25,1063.26 2272.31,1063.24 2274.36,1063.17 2276.41,1063.06 2278.46,1062.89 2280.5,1062.67 2282.54,1062.41 2284.57,1062.09 2286.59,1061.73 2288.6,1061.31 2290.61,1060.85 2292.6,1060.34 2294.57,1059.78 2296.54,1059.17 2298.48,1058.51 2300.41,1057.81 2302.33,1057.06 2304.22,1056.27 2306.1,1055.42 2307.95,1054.54 2309.78,1053.61 2311.59,1052.63 2313.37,1051.61 2315.13,1050.55 2316.86,1049.44 2318.57,1048.29 2320.24,1047.1 2321.89,1045.87 2323.51,1044.61 2325.09,1043.3 2326.64,1041.95 2328.16,1040.57 2329.65,1039.15 2331.1,1037.69 2332.51,1036.2 2333.89,1034.68 2335.23,1033.12 2336.53,1031.53 2337.79,1029.91 2339.01,1028.26 2340.2,1026.57 2341.34,1024.87 2342.44,1023.13 2343.49,1021.37 2344.51,1019.58 2345.47,1017.77 2346.4,1015.93 2347.28,1014.08 2348.11,1012.2 2348.9,1010.3 2349.64,1008.38 2350.34,1006.45 2350.99,1004.5 2351.59,1002.53 2352.14,1000.56 2352.64,998.563 2353.1,996.559 2353.5,994.545 2353.86,992.522 2354.17,990.49 2354.42,988.451 2354.63,986.407 2354.79,984.358 2354.9,982.307 2354.96,980.253 2354.97,978.198 2354.92,976.144 2354.83,974.091 2354.69,972.041 2354.5,969.995 2354.26,967.955 2353.97,965.92 2353.63,963.894 2353.24,961.877 2352.8,959.869 2352.31,957.873 2351.77,955.889 2351.19,953.919 2350.56,951.964 2349.88,950.025 " />
<polyline fill="none" vector-effect="none" points="2349.88,950.025 2343.55,933.269 2336.81,916.674 2329.66,900.248 2322.12,884.003 2314.18,867.947 2305.84,852.091 2297.13,836.443 2288.03,821.013 2278.56,805.811 2268.71,790.846 2258.51,776.126 2247.94,761.661 2237.03,747.459 2225.77,733.528 2214.17,719.877 2202.24,706.515 2189.99,693.448 2177.42,680.686 2164.54,668.235 2151.37,656.104 2137.89,644.298 2124.14,632.827 2110.1,621.696 2095.8,610.911 2081.24,600.481 2066.43,590.41 2051.37,580.705 2036.08,571.372 2020.57,562.415 2004.84,553.842 1988.91,545.656 1972.78,537.863 1956.47,530.468 1939.98,523.474 1923.32,516.886 1906.51,510.708 1889.55,504.944 1872.45,499.597 1855.23,494.671 1837.9,490.167 1820.45,486.09 1802.92,482.441 1785.3,479.222 1767.6,476.436 1749.85,474.085 1732.04,472.169 1714.19,470.69 1696.3,469.648 1678.4,469.045 1660.49,468.881 1642.58,469.155 1624.68,469.868 1606.81,471.019 1588.97,472.607 1571.17,474.632 1553.43,477.092 1535.75,479.986 1518.15,483.313 1500.63,487.069 1483.22,491.253 1465.91,495.863 1448.72,500.895 1431.66,506.346 1414.73,512.214 1397.96,518.495 1381.34,525.185 1364.89,532.279 1348.63,539.775 1332.55,547.666 1316.66,555.949 1300.99,564.619 1285.53,573.67 1270.3,583.097 1255.31,592.894 1240.55,603.055 1226.06,613.575 1211.82,624.446 1197.86,635.663 1184.17,647.219 1170.77,659.106 1157.67,671.318 1144.87,683.848 1132.38,696.687 1120.2,709.828 1108.36,723.263 1096.84,736.985 1085.67,750.984 1074.84,765.253 1064.37,779.783 1054.25,794.565 1044.5,809.59 1035.12,824.85 1026.12,840.335 1017.49,856.035 1009.26,871.943 1001.42,888.047 993.973,904.338 986.928,920.807 980.29,937.444 974.06,954.238 968.244,971.179 962.845,988.258 957.866,1005.46 953.309,1022.79 949.178,1040.22 945.476,1057.74 942.203,1075.35 939.363,1093.04 936.957,1110.79 934.987,1128.59 933.453,1146.44 932.357,1164.32 931.699,1182.22 931.479,1200.13 931.699,1218.04 932.357,1235.94 933.453,1253.82 934.987,1271.66 936.957,1289.47 939.363,1307.22 942.203,1324.9 945.476,1342.51 949.178,1360.04 953.309,1377.47 957.866,1394.79 962.845,1412 968.244,1429.07 974.06,1446.02 980.29,1462.81 986.928,1479.45 993.973,1495.92 1001.42,1512.21 1009.26,1528.31 1017.49,1544.22 1026.12,1559.92 1035.12,1575.4 1044.5,1590.66 1054.25,1605.69 1064.37,1620.47 1074.84,1635 1085.67,1649.27 1096.84,1663.27 1108.36,1676.99 1120.2,1690.43 1132.38,1703.57 1144.87,1716.41 1157.67,1728.94 1170.77,1741.15 1184.17,1753.04 1197.86,1764.59 1211.82,1775.81 1226.06,1786.68 1240.55,1797.2 1255.31,1807.36 1270.3,1817.16 1285.53,1826.58 1300.99,1835.64 1316.66,1844.3 1332.55,1852.59 1348.63,1860.48 1364.89,1867.97 1381.34,1875.07 1397.96,1881.76 1414.73,1888.04 1431.66,1893.91 1448.72,1899.36 1465.91,1904.39 1483.22,1909 1500.63,1913.19 1518.15,1916.94 1535.75,1920.27 1553.43,1923.16 1571.17,1925.62 1588.97,1927.65 1606.81,1929.24 1624.68,1930.39 1642.58,1931.1 1660.49,1931.37 1678.4,1931.21 1696.3,1930.61 1714.19,1929.56 1732.04,1928.09 1749.85,1926.17 1767.6,1923.82 1785.3,1921.03 1802.92,1917.81 1820.45,1914.16 1837.9,1910.09 1855.23,1905.58 1872.45,1900.66 1889.55,1895.31 1906.51,1889.55 1923.32,1883.37 1939.98,1876.78 1956.47,1869.79 1972.78,1862.39 1988.91,1854.6 2004.84,1846.41 2020.57,1837.84 2036.08,1828.88 2051.37,1819.55 2066.43,1809.84 2081.24,1799.77 2095.8,1789.34 2110.1,1778.56 2124.14,1767.43 2137.89,1755.96 2151.37,1744.15 2164.54,1732.02 2177.42,1719.57 2189.99,1706.81 2202.24,1693.74 2214.17,1680.38 2225.77,1666.73 2237.03,1652.8 2247.94,1638.59 2258.51,1624.13 2268.71,1609.41 2278.56,1594.44 2288.03,1579.24 2297.13,1563.81 2305.84,1548.16 2314.18,1532.31 2322.12,1516.25 2329.66,1500.01 2336.81,1483.58 2343.55,1466.98 2349.88,1450.23 " />
<polyline fill="none" vector-effect="none" points="2349.88,1450.23 2350.56,1448.29 2351.19,1446.33 2351.77,1444.36 2352.31,1442.38 2352.8,1440.38 2353.24,1438.38 2353.63,1436.36 2353.97,1434.33 2354.26,1432.3 2354.5,1430.26 2354.69,1428.21 2354.83,1426.16 2354.92,1424.11 2354.97,1422.06 2354.96,1420 2354.9,1417.95 2354.79,1415.9 2354.63,1413.85 2354.42,1411.8 2354.17,1409.76 2353.86,1407.73 2353.5,1405.71 2353.1,1403.69 2352.64,1401.69 2352.14,1399.7 2351.59,1397.72 2350.99,1395.75 2350.34,1393.8 2349.64,1391.87 2348.9,1389.95 2348.11,1388.06 2347.28,1386.18 2346.4,1384.32 2345.47,1382.49 2344.51,1380.68 2343.49,1378.89 2342.44,1377.13 2341.34,1375.39 2340.2,1373.68 2339.01,1372 2337.79,1370.35 2336.53,1368.73 2335.23,1367.14 2333.89,1365.58 2332.51,1364.05 2331.1,1362.56 2329.65,1361.11 2328.16,1359.69 2326.64,1358.3 2325.09,1356.96 2323.51,1355.65 2321.89,1354.38 2320.24,1353.15 2318.57,1351.96 2316.86,1350.81 2315.13,1349.71 2313.37,1348.65 2311.59,1347.63 2309.78,1346.65 2307.95,1345.72 2306.1,1344.83 2304.22,1343.99 2302.33,1343.19 2300.41,1342.44 2298.48,1341.74 2296.54,1341.08 2294.57,1340.48 2292.6,1339.92 2290.61,1339.4 2288.6,1338.94 2286.59,1338.53 2284.57,1338.16 2282.54,1337.85 2280.5,1337.58 2278.46,1337.36 2276.41,1337.2 2274.36,1337.08 2272.31,1337.01 2270.25,1337 2268.2,1337.03 2266.14,1337.11 2264.09,1337.25 2262.05,1337.43 2260,1337.66 2257.97,1337.95 2255.94,1338.28 2253.92,1338.66 2251.91,1339.09 2249.92,1339.57 2247.93,1340.1 2245.96,1340.67 2244,1341.3 2242.06,1341.97 2240.13,1342.69 2238.23,1343.45 2236.34,1344.26 2234.47,1345.12 2232.62,1346.02 2230.8,1346.97 2229,1347.96 2227.22,1349 2225.48,1350.07 2223.75,1351.19 2222.06,1352.35 2220.39,1353.56 2218.75,1354.8 2217.15,1356.08 2215.57,1357.4 2214.03,1358.76 2212.53,1360.16 2211.05,1361.59 2209.61,1363.06 2208.21,1364.56 2206.85,1366.09 2205.52,1367.66 2204.23,1369.26 2202.98,1370.89 2201.77,1372.56 2200.6,1374.25 2199.48,1375.96 2198.39,1377.71 2197.35,1379.48 2196.35,1381.28 2195.4,1383.1 2194.49,1384.94 2193.62,1386.8 2192.81,1388.69 2192.03,1390.59 2191.31,1392.51 " />
<polyline fill="none" vector-effect="none" points="1565.5,755.269 1564.96,753.522 1564.46,751.763 1564,749.992 1563.58,748.21 1563.21,746.418 1562.88,744.618 1562.6,742.81 1562.36,740.997 1562.17,739.177 1562.02,737.354 1561.91,735.527 1561.85,733.699 1561.83,731.869 1561.86,730.04 1561.93,728.212 1562.05,726.386 1562.21,724.563 1562.42,722.745 1562.67,720.933 1562.96,719.127 1563.3,717.329 1563.68,715.54 1564.11,713.76 1564.58,711.992 1565.09,710.235 1565.64,708.491 1566.24,706.762 1566.88,705.047 1567.56,703.349 1568.28,701.668 1569.04,700.005 1569.85,698.361 1570.69,696.737 1571.57,695.134 1572.49,693.553 1573.45,691.995 1574.45,690.461 1575.48,688.951 1576.55,687.468 1577.66,686.01 1578.8,684.581 1579.98,683.179 1581.19,681.807 1582.43,680.465 1583.71,679.153 1585.01,677.873 1586.35,676.625 1587.72,675.41 1589.12,674.229 1590.54,673.082 1592,671.971 1593.48,670.895 1594.98,669.855 1596.51,668.853 1598.07,667.888 1599.64,666.962 1601.24,666.074 1602.86,665.226 1604.51,664.417 1606.17,663.649 1607.85,662.921 1609.54,662.234 1611.25,661.589 1612.98,660.987 1614.72,660.426 1616.48,659.908 1618.24,659.433 1620.02,659.001 1621.81,658.613 1623.61,658.268 1625.41,657.968 1627.22,657.711 1629.04,657.499 1630.86,657.331 1632.69,657.208 " />
<polyline fill="none" vector-effect="none" points="1565.5,755.269 1653.69,1026.68 " />
<polyline fill="none" vector-effect="none" points="1702.37,1075.01 1700.63,1074.43 1698.91,1073.82 1697.21,1073.16 1695.52,1072.46 1693.85,1071.73 1692.2,1070.95 1690.57,1070.13 1688.95,1069.27 1687.36,1068.37 1685.8,1067.43 1684.25,1066.46 1682.73,1065.45 1681.23,1064.4 1679.76,1063.32 1678.32,1062.2 1676.91,1061.04 1675.52,1059.85 1674.16,1058.63 1672.83,1057.38 1671.54,1056.09 1670.27,1054.77 1669.04,1053.42 1667.84,1052.04 1666.68,1050.64 1665.55,1049.2 1664.45,1047.74 1663.39,1046.25 1662.37,1044.74 1661.38,1043.2 1660.44,1041.64 1659.53,1040.06 1658.66,1038.45 1657.83,1036.82 1657.03,1035.18 1656.28,1033.51 1655.57,1031.83 1654.9,1030.13 1654.28,1028.41 1653.69,1026.68 " />
<polyline fill="none" vector-effect="none" points="1704.2,1075.6 1702.37,1075.01 " />
<polyline fill="none" vector-effect="none" points="1771.99,1065.12 1770.5,1066.18 1768.98,1067.2 1767.44,1068.18 1765.88,1069.12 1764.29,1070.03 1762.68,1070.89 1761.06,1071.72 1759.41,1072.51 1757.74,1073.26 1756.06,1073.96 1754.36,1074.63 1752.64,1075.25 1750.91,1075.83 1749.16,1076.37 1747.4,1076.87 1745.63,1077.32 1743.85,1077.73 1742.06,1078.1 1740.27,1078.42 1738.46,1078.7 1736.65,1078.93 1734.83,1079.13 1733.01,1079.27 1731.19,1079.37 1729.36,1079.43 1727.54,1079.44 1725.71,1079.41 1723.89,1079.34 1722.06,1079.22 1720.24,1079.05 1718.43,1078.84 1716.62,1078.59 1714.82,1078.3 1713.02,1077.95 1711.24,1077.57 1709.46,1077.14 1707.7,1076.67 1705.94,1076.16 1704.2,1075.6 " />
<polyline fill="none" vector-effect="none" points="2002.87,897.378 1771.99,1065.12 " />
<polyline fill="none" vector-effect="none" points="2006.15,778.554 2007.56,779.727 2008.93,780.934 2010.28,782.173 2011.59,783.446 2012.88,784.75 2014.13,786.085 2015.35,787.45 2016.53,788.844 2017.68,790.267 2018.8,791.718 2019.88,793.195 2020.92,794.698 2021.93,796.226 2022.89,797.778 2023.82,799.354 2024.72,800.951 2025.57,802.57 2026.38,804.21 2027.15,805.868 2027.89,807.545 2028.58,809.239 2029.23,810.95 2029.83,812.676 2030.4,814.416 2030.92,816.17 2031.4,817.935 2031.84,819.712 2032.23,821.499 2032.58,823.295 2032.88,825.099 2033.14,826.91 2033.36,828.727 2033.53,830.548 2033.66,832.374 2033.74,834.201 2033.78,836.03 2033.78,837.86 2033.73,839.689 2033.63,841.516 2033.49,843.34 2033.31,845.161 2033.08,846.976 2032.81,848.785 2032.49,850.587 2032.13,852.381 2031.72,854.165 2031.28,855.939 2030.78,857.702 2030.25,859.452 2029.67,861.189 2029.06,862.911 2028.4,864.617 2027.69,866.307 2026.95,867.979 2026.17,869.632 2025.35,871.266 2024.48,872.88 2023.58,874.471 2022.64,876.041 2021.66,877.587 2020.65,879.108 2019.59,880.605 2018.5,882.075 2017.38,883.518 2016.22,884.933 2015.03,886.32 2013.8,887.677 2012.54,889.004 2011.25,890.3 2009.92,891.564 2008.57,892.795 2007.19,893.992 2005.78,895.156 2004.34,896.285 2002.87,897.378 " />
<polyline fill="none" vector-effect="none" points="2006.15,778.554 1996.01,770.489 1985.68,762.668 1975.16,755.096 1964.46,747.777 1953.6,740.714 1942.57,733.912 1931.37,727.376 1920.03,721.108 1908.54,715.112 1896.91,709.391 1885.15,703.949 1873.26,698.789 1861.26,693.914 1849.13,689.327 1836.91,685.029 1824.58,681.024 1812.17,677.315 1799.66,673.902 1787.08,670.788 1774.43,667.974 1761.72,665.463 1748.95,663.256 1736.13,661.354 1723.27,659.758 1710.37,658.468 1697.45,657.487 1684.51,656.813 1671.55,656.449 1658.59,656.393 1645.64,656.646 1632.69,657.208 " />
<polyline fill="none" vector-effect="none" points="1209.6,1155.13 1207.77,1155.1 1205.94,1155.04 1204.12,1154.93 1202.29,1154.77 1200.47,1154.57 1198.66,1154.33 1196.85,1154.04 1195.05,1153.7 1193.26,1153.33 1191.48,1152.91 1189.71,1152.44 1187.96,1151.94 1186.21,1151.39 1184.48,1150.8 1182.76,1150.16 1181.06,1149.49 1179.38,1148.77 1177.71,1148.01 1176.07,1147.21 1174.44,1146.38 1172.84,1145.5 1171.25,1144.58 1169.69,1143.63 1168.15,1142.63 1166.64,1141.61 1165.15,1140.54 1163.69,1139.44 1162.26,1138.3 1160.86,1137.13 1159.48,1135.92 1158.13,1134.68 1156.82,1133.41 1155.53,1132.11 1154.28,1130.77 1153.06,1129.41 1151.88,1128.01 1150.73,1126.59 1149.61,1125.14 1148.53,1123.67 1147.49,1122.16 1146.48,1120.64 1145.51,1119.08 1144.58,1117.51 1143.69,1115.91 1142.83,1114.29 1142.02,1112.65 1141.25,1111 1140.51,1109.32 1139.82,1107.63 1139.17,1105.92 1138.56,1104.19 1138,1102.45 1137.48,1100.7 1137,1098.93 1136.56,1097.15 1136.16,1095.37 1135.81,1093.57 1135.51,1091.77 1135.25,1089.96 1135.03,1088.14 1134.86,1086.32 1134.73,1084.49 1134.64,1082.67 1134.6,1080.84 1134.61,1079.01 1134.66,1077.18 1134.75,1075.35 1134.89,1073.53 1135.07,1071.71 1135.3,1069.89 1135.57,1068.08 1135.89,1066.28 1136.25,1064.49 1136.65,1062.7 1137.1,1060.93 " />
<polyline fill="none" vector-effect="none" points="1209.6,1155.13 1494.98,1155.13 " />
<polyline fill="none" vector-effect="none" points="1555.98,1123.76 1554.9,1125.24 1553.78,1126.68 1552.63,1128.1 1551.45,1129.49 1550.23,1130.85 1548.98,1132.18 1547.69,1133.48 1546.38,1134.75 1545.03,1135.98 1543.66,1137.19 1542.25,1138.35 1540.82,1139.49 1539.36,1140.59 1537.88,1141.65 1536.37,1142.68 1534.83,1143.66 1533.27,1144.62 1531.69,1145.53 1530.09,1146.4 1528.46,1147.24 1526.82,1148.03 1525.16,1148.79 1523.47,1149.5 1521.78,1150.18 1520.06,1150.81 1518.33,1151.4 1516.59,1151.95 1514.84,1152.45 1513.07,1152.91 1511.29,1153.33 1509.5,1153.71 1507.71,1154.04 1505.9,1154.33 1504.09,1154.57 1502.28,1154.77 1500.46,1154.93 1498.63,1155.04 1496.81,1155.1 1494.98,1155.13 " />
<polyline fill="none" vector-effect="none" points="1557.12,1122.2 1555.98,1123.76 " />
<polyline fill="none" vector-effect="none" points="1568.1,1054.5 1568.64,1056.24 1569.14,1058 1569.6,1059.76 1570.01,1061.54 1570.38,1063.33 1570.71,1065.13 1570.99,1066.93 1571.23,1068.74 1571.43,1070.56 1571.58,1072.38 1571.69,1074.2 1571.75,1076.03 1571.77,1077.86 1571.74,1079.68 1571.67,1081.51 1571.55,1083.33 1571.39,1085.15 1571.19,1086.97 1570.94,1088.77 1570.65,1090.58 1570.31,1092.37 1569.93,1094.16 1569.51,1095.94 1569.04,1097.7 1568.53,1099.46 1567.98,1101.2 1567.39,1102.93 1566.75,1104.64 1566.07,1106.33 1565.35,1108.01 1564.6,1109.67 1563.8,1111.32 1562.96,1112.94 1562.08,1114.54 1561.16,1116.12 1560.21,1117.68 1559.21,1119.21 1558.18,1120.72 1557.12,1122.2 " />
<polyline fill="none" vector-effect="none" points="1479.91,783.081 1568.1,1054.5 " />
<polyline fill="none" vector-effect="none" points="1367.91,743.238 1369.46,742.265 1371.04,741.33 1372.63,740.433 1374.25,739.576 1375.88,738.758 1377.54,737.981 1379.21,737.244 1380.91,736.548 1382.62,735.894 1384.34,735.282 1386.08,734.712 1387.83,734.184 1389.59,733.699 1391.37,733.258 1393.16,732.86 1394.95,732.506 1396.75,732.195 1398.56,731.929 1400.38,731.707 1402.2,731.529 1404.03,731.395 1405.85,731.307 1407.68,731.262 1409.51,731.263 1411.34,731.308 1413.17,731.398 1414.99,731.532 1416.81,731.711 1418.63,731.934 1420.44,732.201 1422.24,732.513 1424.04,732.868 1425.82,733.267 1427.6,733.709 1429.36,734.195 1431.11,734.723 1432.85,735.294 1434.58,735.908 1436.28,736.563 1437.98,737.259 1439.65,737.997 1441.31,738.775 1442.94,739.594 1444.56,740.452 1446.15,741.349 1447.73,742.285 1449.27,743.259 1450.8,744.27 1452.3,745.319 1453.77,746.403 1455.22,747.524 1456.64,748.679 1458.03,749.868 1459.39,751.091 1460.72,752.347 1462.02,753.635 1463.29,754.954 1464.52,756.304 1465.72,757.684 1466.89,759.092 1468.02,760.529 1469.12,761.992 1470.18,763.482 1471.21,764.998 1472.2,766.538 1473.15,768.102 1474.06,769.688 1474.93,771.296 1475.76,772.925 1476.56,774.574 1477.31,776.242 1478.02,777.927 1478.69,779.63 1479.32,781.348 1479.91,783.081 " />
<polyline fill="none" vector-effect="none" points="1367.91,743.238 1357.11,750.394 1346.48,757.805 1336.03,765.468 1325.76,773.378 1315.68,781.53 1305.81,789.919 1296.13,798.542 1286.67,807.393 1277.41,816.467 1268.38,825.759 1259.57,835.264 1250.99,844.976 1242.64,854.889 1234.53,864.999 1226.67,875.299 1219.05,885.784 1211.68,896.447 1204.57,907.283 1197.72,918.285 1191.14,929.447 1184.82,940.763 1178.78,952.226 1173.01,963.831 1167.51,975.569 1162.3,987.435 1157.38,999.422 1152.74,1011.52 1148.39,1023.73 1144.33,1036.04 1140.57,1048.44 1137.1,1060.93 " />
<polyline fill="none" vector-effect="none" points="2367.5,1456.64 2368.33,1454.27 2369.1,1451.88 2369.81,1449.47 2370.47,1447.05 2371.07,1444.61 2371.6,1442.16 2372.08,1439.69 2372.49,1437.21 2372.85,1434.73 2373.14,1432.23 2373.38,1429.73 2373.55,1427.23 2373.66,1424.72 2373.71,1422.21 2373.7,1419.7 2373.63,1417.19 2373.5,1414.68 2373.31,1412.17 2373.05,1409.68 2372.74,1407.18 2372.36,1404.7 2371.93,1402.23 2371.43,1399.77 2370.87,1397.32 2370.26,1394.88 2369.58,1392.46 2368.85,1390.06 2368.06,1387.68 2367.21,1385.32 2366.3,1382.97 2365.34,1380.65 2364.32,1378.36 2363.24,1376.09 2362.11,1373.85 2360.93,1371.63 2359.69,1369.45 2358.4,1367.29 2357.06,1365.17 2355.66,1363.08 2354.22,1361.03 2352.73,1359.01 2351.18,1357.03 2349.59,1355.08 2347.95,1353.18 2346.27,1351.32 2344.54,1349.49 2342.77,1347.71 2340.95,1345.98 2339.1,1344.29 2337.2,1342.64 2335.26,1341.04 2333.29,1339.49 2331.28,1337.99 2329.23,1336.54 2327.14,1335.14 2325.03,1333.78 2322.88,1332.48 2320.7,1331.24 2318.49,1330.04 2316.25,1328.9 2313.99,1327.82 2311.69,1326.79 2309.38,1325.82 2307.04,1324.9 2304.68,1324.04 2302.3,1323.24 2299.9,1322.5 2297.49,1321.81 2295.05,1321.19 2292.61,1320.62 2290.15,1320.12 2287.68,1319.67 2285.19,1319.29 2282.7,1318.96 2280.21,1318.7 2277.7,1318.49 2275.2,1318.35 2272.69,1318.27 2270.17,1318.25 2267.66,1318.29 2265.15,1318.39 2262.65,1318.55 2260.15,1318.78 2257.65,1319.06 2255.16,1319.41 2252.69,1319.81 2250.22,1320.28 2247.76,1320.81 2245.32,1321.39 2242.89,1322.04 2240.48,1322.74 2238.09,1323.5 2235.72,1324.32 2233.36,1325.2 2231.03,1326.14 2228.72,1327.13 2226.44,1328.18 2224.19,1329.28 2221.96,1330.44 2219.76,1331.65 2217.59,1332.91 2215.45,1334.23 2213.34,1335.6 2211.27,1337.02 2209.24,1338.49 2207.23,1340 2205.27,1341.57 2203.35,1343.19 2201.46,1344.85 2199.62,1346.55 2197.82,1348.3 2196.06,1350.1 2194.35,1351.93 2192.68,1353.81 2191.06,1355.73 2189.48,1357.68 2187.96,1359.68 2186.48,1361.71 2185.05,1363.77 2183.67,1365.87 2182.35,1368.01 2181.08,1370.17 2179.86,1372.37 2178.69,1374.59 2177.58,1376.84 2176.52,1379.12 2175.52,1381.42 2174.57,1383.75 2173.69,1386.1 " />
<polyline fill="none" vector-effect="none" points="2173.69,1014.15 2174.58,1016.52 2175.53,1018.87 2176.54,1021.19 2177.61,1023.48 2178.73,1025.75 2179.91,1027.99 2181.14,1030.2 2182.43,1032.38 2183.77,1034.53 2185.16,1036.64 2186.6,1038.72 2188.1,1040.77 2189.64,1042.77 2191.23,1044.74 2192.87,1046.67 2194.56,1048.55 2196.29,1050.4 2198.07,1052.2 2199.89,1053.96 2201.76,1055.67 2203.66,1057.34 2205.61,1058.96 2207.59,1060.53 2209.61,1062.05 2211.67,1063.52 2213.77,1064.94 2215.9,1066.31 2218.06,1067.62 2220.25,1068.89 2222.48,1070.09 2224.73,1071.25 2227.01,1072.35 2229.32,1073.39 2231.65,1074.37 2234,1075.3 2236.38,1076.17 2238.78,1076.98 2241.2,1077.73 2243.63,1078.42 2246.08,1079.05 2248.55,1079.62 2251.03,1080.13 2253.52,1080.58 2256.02,1080.97 2258.53,1081.3 2261.04,1081.56 2263.57,1081.77 2266.09,1081.91 2268.62,1081.99 2271.16,1082.01 2273.69,1081.96 2276.21,1081.85 2278.74,1081.69 2281.26,1081.45 2283.77,1081.16 2286.28,1080.81 2288.78,1080.39 2291.26,1079.92 2293.74,1079.38 2296.2,1078.78 2298.64,1078.12 2301.07,1077.4 2303.48,1076.63 2305.86,1075.79 2308.23,1074.89 2310.58,1073.94 2312.9,1072.93 2315.19,1071.86 2317.46,1070.74 2319.7,1069.56 2321.91,1068.33 2324.09,1067.05 2326.24,1065.71 2328.35,1064.31 2330.43,1062.87 2332.48,1061.38 2334.48,1059.83 2336.45,1058.24 2338.38,1056.6 2340.26,1054.91 2342.11,1053.18 2343.91,1051.4 2345.67,1049.58 2347.38,1047.72 2349.05,1045.81 2350.67,1043.87 2352.24,1041.88 2353.76,1039.86 2355.23,1037.8 2356.65,1035.71 2358.02,1033.58 2359.33,1031.42 2360.6,1029.22 2361.8,1027 2362.96,1024.75 2364.06,1022.47 2365.1,1020.16 2366.08,1017.83 2367.01,1015.47 2367.88,1013.09 2368.69,1010.7 2369.44,1008.28 2370.13,1005.85 2370.76,1003.39 2371.33,1000.93 2371.84,998.45 2372.29,995.959 2372.68,993.458 2373.01,990.948 2373.28,988.431 2373.48,985.908 2373.62,983.381 2373.7,980.851 2373.72,978.32 2373.67,975.79 2373.56,973.261 2373.4,970.736 2373.16,968.215 2372.87,965.701 2372.52,963.195 2372.1,960.698 2371.63,958.213 2371.09,955.74 2370.49,953.28 2369.83,950.836 2369.11,948.409 2368.34,946.001 2367.5,943.612 " />
<polyline fill="none" vector-effect="none" points="2173.69,1014.15 2169.79,1003.78 " />
<polyline fill="none" vector-effect="none" points="2055.77,970.19 2057.26,969.133 2058.78,968.112 2060.32,967.129 2061.89,966.184 2063.48,965.277 2065.09,964.409 2066.72,963.581 2068.37,962.793 2070.04,962.045 2071.73,961.338 2073.44,960.673 2075.16,960.049 2076.89,959.468 2078.64,958.929 2080.4,958.433 2082.17,957.98 2083.96,957.57 2085.75,957.204 2087.55,956.882 2089.36,956.604 2091.17,956.37 2092.99,956.181 2094.82,956.036 2096.64,955.935 2098.47,955.879 2100.3,955.867 2102.13,955.901 2103.96,955.979 2105.78,956.101 2107.61,956.268 2109.42,956.479 2111.23,956.735 2113.04,957.035 2114.84,957.378 2116.63,957.766 2118.4,958.196 2120.17,958.67 2121.93,959.188 2123.67,959.747 2125.4,960.349 2127.11,960.993 2128.8,961.679 2130.48,962.406 2132.14,963.173 2133.79,963.981 2135.41,964.829 2137.01,965.716 2138.59,966.641 2140.14,967.605 2141.67,968.607 2143.18,969.646 2144.66,970.721 2146.11,971.831 2147.54,972.977 2148.94,974.158 2150.31,975.372 2151.64,976.619 2152.95,977.899 2154.23,979.21 2155.47,980.551 2156.68,981.923 2157.86,983.324 2159,984.753 2160.11,986.21 2161.18,987.693 2162.22,989.202 2163.21,990.735 2164.17,992.293 2165.1,993.873 2165.98,995.476 2166.82,997.099 2167.63,998.743 2168.39,1000.41 2169.11,1002.09 2169.79,1003.78 " />
<polyline fill="none" vector-effect="none" points="2055.77,970.19 1824.89,1137.93 " />
<polyline fill="none" vector-effect="none" points="1793.98,1199.16 1793.98,1197.34 1794.04,1195.51 1794.14,1193.69 1794.28,1191.86 1794.46,1190.05 1794.69,1188.24 1794.97,1186.43 1795.29,1184.63 1795.65,1182.84 1796.06,1181.06 1796.51,1179.29 1797,1177.53 1797.53,1175.78 1798.11,1174.05 1798.73,1172.33 1799.39,1170.63 1800.09,1168.94 1800.83,1167.27 1801.62,1165.62 1802.44,1163.99 1803.3,1162.38 1804.2,1160.8 1805.14,1159.23 1806.12,1157.69 1807.14,1156.17 1808.19,1154.67 1809.28,1153.21 1810.4,1151.77 1811.56,1150.35 1812.75,1148.97 1813.98,1147.62 1815.23,1146.29 1816.52,1145 1817.85,1143.74 1819.2,1142.51 1820.58,1141.31 1821.99,1140.15 1823.43,1139.03 1824.89,1137.93 " />
<polyline fill="none" vector-effect="none" points="1793.98,1201.09 1793.98,1199.16 " />
<polyline fill="none" vector-effect="none" points="1824.89,1262.32 1823.43,1261.23 1821.99,1260.1 1820.58,1258.94 1819.2,1257.75 1817.85,1256.52 1816.52,1255.25 1815.23,1253.96 1813.98,1252.64 1812.75,1251.28 1811.56,1249.9 1810.4,1248.49 1809.28,1247.05 1808.19,1245.58 1807.14,1244.09 1806.12,1242.57 1805.14,1241.02 1804.2,1239.46 1803.3,1237.87 1802.44,1236.26 1801.62,1234.63 1800.83,1232.98 1800.09,1231.31 1799.39,1229.62 1798.73,1227.92 1798.11,1226.2 1797.53,1224.47 1797,1222.72 1796.51,1220.96 1796.06,1219.19 1795.65,1217.41 1795.29,1215.62 1794.97,1213.82 1794.69,1212.02 1794.46,1210.21 1794.28,1208.39 1794.14,1206.57 1794.04,1204.74 1793.98,1202.92 1793.98,1201.09 " />
<polyline fill="none" vector-effect="none" points="2055.77,1430.06 1824.89,1262.32 " />
<polyline fill="none" vector-effect="none" points="2169.79,1396.47 2169.11,1398.17 2168.39,1399.85 2167.63,1401.51 2166.82,1403.16 2165.98,1404.78 2165.1,1406.38 2164.17,1407.96 2163.21,1409.52 2162.22,1411.05 2161.18,1412.56 2160.11,1414.04 2159,1415.5 2157.86,1416.93 2156.68,1418.33 2155.47,1419.7 2154.23,1421.04 2152.95,1422.36 2151.64,1423.64 2150.31,1424.88 2148.94,1426.1 2147.54,1427.28 2146.11,1428.42 2144.66,1429.53 2143.18,1430.61 2141.67,1431.65 2140.14,1432.65 2138.59,1433.61 2137.01,1434.54 2135.41,1435.43 2133.79,1436.27 2132.14,1437.08 2130.48,1437.85 2128.8,1438.58 2127.11,1439.26 2125.4,1439.9 2123.67,1440.51 2121.93,1441.07 2120.17,1441.58 2118.4,1442.06 2116.63,1442.49 2114.84,1442.88 2113.04,1443.22 2111.23,1443.52 2109.42,1443.77 2107.61,1443.99 2105.78,1444.15 2103.96,1444.28 2102.13,1444.35 2100.3,1444.39 2098.47,1444.38 2096.64,1444.32 2094.82,1444.22 2092.99,1444.07 2091.17,1443.88 2089.36,1443.65 2087.55,1443.37 2085.75,1443.05 2083.96,1442.68 2082.17,1442.27 2080.4,1441.82 2078.64,1441.33 2076.89,1440.79 2075.16,1440.2 2073.44,1439.58 2071.73,1438.92 2070.04,1438.21 2068.37,1437.46 2066.72,1436.67 2065.09,1435.85 2063.48,1434.98 2061.89,1434.07 2060.32,1433.13 2058.78,1432.14 2057.26,1431.12 2055.77,1430.06 " />
<polyline fill="none" vector-effect="none" points="2169.79,1396.47 2173.69,1386.1 " />
<polyline fill="none" vector-effect="none" points="1479.91,1617.17 1479.32,1618.91 1478.69,1620.62 1478.02,1622.33 1477.31,1624.01 1476.56,1625.68 1475.76,1627.33 1474.93,1628.96 1474.06,1630.57 1473.15,1632.15 1472.2,1633.72 1471.21,1635.26 1470.18,1636.77 1469.12,1638.26 1468.02,1639.73 1466.89,1641.16 1465.72,1642.57 1464.52,1643.95 1463.29,1645.3 1462.02,1646.62 1460.72,1647.91 1459.39,1649.16 1458.03,1650.39 1456.64,1651.58 1455.22,1652.73 1453.77,1653.85 1452.3,1654.94 1450.8,1655.98 1449.27,1657 1447.73,1657.97 1446.15,1658.91 1444.56,1659.8 1442.94,1660.66 1441.31,1661.48 1439.65,1662.26 1437.98,1662.99 1436.28,1663.69 1434.58,1664.35 1432.85,1664.96 1431.11,1665.53 1429.36,1666.06 1427.6,1666.54 1425.82,1666.99 1424.04,1667.39 1422.24,1667.74 1420.44,1668.05 1418.63,1668.32 1416.81,1668.54 1414.99,1668.72 1413.17,1668.86 1411.34,1668.95 1409.51,1668.99 1407.68,1668.99 1405.85,1668.95 1404.03,1668.86 1402.2,1668.73 1400.38,1668.55 1398.56,1668.33 1396.75,1668.06 1394.95,1667.75 1393.16,1667.39 1391.37,1667 1389.59,1666.55 1387.83,1666.07 1386.08,1665.54 1384.34,1664.97 1382.62,1664.36 1380.91,1663.71 1379.21,1663.01 1377.54,1662.27 1375.88,1661.5 1374.25,1660.68 1372.63,1659.82 1371.04,1658.92 1369.46,1657.99 1367.91,1657.02 " />
<polyline fill="none" vector-effect="none" points="1479.91,1617.17 1568.1,1345.76 " />
<polyline fill="none" vector-effect="none" points="1557.12,1278.05 1558.18,1279.54 1559.21,1281.04 1560.21,1282.58 1561.16,1284.13 1562.08,1285.71 1562.96,1287.32 1563.8,1288.94 1564.6,1290.58 1565.35,1292.24 1566.07,1293.92 1566.75,1295.62 1567.39,1297.33 1567.98,1299.06 1568.53,1300.8 1569.04,1302.55 1569.51,1304.32 1569.93,1306.09 1570.31,1307.88 1570.65,1309.68 1570.94,1311.48 1571.19,1313.29 1571.39,1315.1 1571.55,1316.92 1571.67,1318.75 1571.74,1320.57 1571.77,1322.4 1571.75,1324.22 1571.69,1326.05 1571.58,1327.87 1571.43,1329.69 1571.23,1331.51 1570.99,1333.32 1570.71,1335.13 1570.38,1336.92 1570.01,1338.71 1569.6,1340.49 1569.14,1342.26 1568.64,1344.01 1568.1,1345.76 " />
<polyline fill="none" vector-effect="none" points="1555.98,1276.49 1557.12,1278.05 " />
<polyline fill="none" vector-effect="none" points="1494.98,1245.13 1496.81,1245.15 1498.63,1245.22 1500.46,1245.33 1502.28,1245.48 1504.09,1245.68 1505.9,1245.93 1507.71,1246.21 1509.5,1246.55 1511.29,1246.92 1513.07,1247.34 1514.84,1247.8 1516.59,1248.31 1518.33,1248.85 1520.06,1249.44 1521.78,1250.08 1523.47,1250.75 1525.16,1251.46 1526.82,1252.22 1528.46,1253.01 1530.09,1253.85 1531.69,1254.72 1533.27,1255.64 1534.83,1256.59 1536.37,1257.58 1537.88,1258.6 1539.36,1259.67 1540.82,1260.77 1542.25,1261.9 1543.66,1263.07 1545.03,1264.27 1546.38,1265.51 1547.69,1266.77 1548.98,1268.07 1550.23,1269.4 1551.45,1270.76 1552.63,1272.15 1553.78,1273.57 1554.9,1275.02 1555.98,1276.49 " />
<polyline fill="none" vector-effect="none" points="1209.6,1245.13 1494.98,1245.13 " />
<polyline fill="none" vector-effect="none" points="1137.1,1339.33 1136.65,1337.55 1136.25,1335.77 1135.89,1333.97 1135.57,1332.17 1135.3,1330.36 1135.07,1328.55 1134.89,1326.73 1134.75,1324.9 1134.66,1323.08 1134.61,1321.25 1134.6,1319.42 1134.64,1317.59 1134.73,1315.76 1134.86,1313.93 1135.03,1312.11 1135.25,1310.3 1135.51,1308.49 1135.81,1306.68 1136.16,1304.89 1136.56,1303.1 1137,1301.32 1137.48,1299.56 1138,1297.8 1138.56,1296.06 1139.17,1294.34 1139.82,1292.63 1140.51,1290.93 1141.25,1289.26 1142.02,1287.6 1142.83,1285.96 1143.69,1284.34 1144.58,1282.75 1145.51,1281.17 1146.48,1279.62 1147.49,1278.09 1148.53,1276.59 1149.61,1275.11 1150.73,1273.66 1151.88,1272.24 1153.06,1270.85 1154.28,1269.48 1155.53,1268.15 1156.82,1266.84 1158.13,1265.57 1159.48,1264.33 1160.86,1263.13 1162.26,1261.95 1163.69,1260.82 1165.15,1259.72 1166.64,1258.65 1168.15,1257.62 1169.69,1256.63 1171.25,1255.67 1172.84,1254.76 1174.44,1253.88 1176.07,1253.04 1177.71,1252.24 1179.38,1251.49 1181.06,1250.77 1182.76,1250.09 1184.48,1249.46 1186.21,1248.87 1187.96,1248.32 1189.71,1247.81 1191.48,1247.35 1193.26,1246.93 1195.05,1246.55 1196.85,1246.22 1198.66,1245.93 1200.47,1245.68 1202.29,1245.48 1204.12,1245.33 1205.94,1245.22 1207.77,1245.15 1209.6,1245.13 " />
<polyline fill="none" vector-effect="none" points="1137.1,1339.33 1140.57,1351.81 1144.33,1364.22 1148.39,1376.52 1152.74,1388.73 1157.38,1400.83 1162.3,1412.82 1167.51,1424.69 1173.01,1436.42 1178.78,1448.03 1184.82,1459.49 1191.14,1470.81 1197.72,1481.97 1204.57,1492.97 1211.68,1503.81 1219.05,1514.47 1226.67,1524.95 1234.53,1535.26 1242.64,1545.36 1250.99,1555.28 1259.57,1564.99 1268.38,1574.5 1277.41,1583.79 1286.67,1592.86 1296.13,1601.71 1305.81,1610.33 1315.68,1618.72 1325.76,1626.88 1336.03,1634.79 1346.48,1642.45 1357.11,1649.86 1367.91,1657.02 " />
</g>

<g fill="none" stroke="#000000" stroke-opacity="1" stroke-width="1" stroke-linecap="square" stroke-linejoin="bevel" transform="matrix(1,0,0,1,0,0)"
font-family="Arial" font-size="12" font-weight="400" font-style="normal" 
>
</g>
</g>
</svg>
